<?xml version="1.0" encoding="utf-8"?>
<!-- Generator: Adobe Illustrator 24.2.1, SVG Export Plug-In . SVG Version: 6.00 Build 0)  -->
<svg version="1.1" id="Camada_1" xmlns="http://www.w3.org/2000/svg" xmlns:xlink="http://www.w3.org/1999/xlink" x="0px" y="0px"
	 viewBox="0 0 140.6 60.4" style="enable-background:new 0 0 140.6 60.4;" xml:space="preserve">
<style type="text/css">
	.st0{fill:#606060;}
	.st1{fill:#FFFFFF;}
</style>
<g>
	<g>
		<path class="st0" d="M34.6,1h11.8v58.2H35v-4.3c-0.7,1.5-2.2,2.9-4.5,3.9c-2.2,1.1-4.9,1.6-8,1.6c-2.7,0-5.3-0.5-7.9-1.6
			c-2.5-1.1-4.8-2.6-6.8-4.6c-2-2-3.5-4.3-4.6-7.1c-1.1-2.8-1.7-5.7-1.7-8.9c0-3.1,0.6-6.1,1.7-8.9c1.1-2.8,2.7-5.1,4.6-7.1
			c2-2,4.2-3.5,6.8-4.6c2.5-1.1,5.2-1.6,7.9-1.6c2.9,0,5.4,0.5,7.6,1.6c2.2,1.1,3.7,2.4,4.4,3.9V1z M34.6,33.4
			c-0.6-1.3-1.8-2.5-3.7-3.4c-1.9-0.9-4-1.4-6.4-1.4c-1.5,0-3.1,0.3-4.8,0.9c-1.7,0.6-3.2,1.7-4.4,3.3c-1.2,1.6-1.8,3.4-1.8,5.4
			s0.6,3.8,1.8,5.4s2.7,2.7,4.4,3.3c1.7,0.6,3.3,0.9,4.8,0.9c2.3,0,4.5-0.5,6.4-1.4c1.9-0.9,3.1-2.1,3.7-3.4V33.4z"/>
		<path class="st0" d="M50.1,49.6c0.5-1.2,1.4-2.2,2.6-3.1s2.7-1.3,4.2-1.3c1,0,2,0.3,3.2,0.8c1.2,0.5,2.2,1.4,3.1,2.7
			c0.9,1.3,1.3,2.7,1.3,4.2c0,1-0.3,2-0.8,3.2c-0.5,1.2-1.4,2.2-2.7,3.1c-1.3,0.9-2.7,1.3-4.2,1.3c-1,0-2-0.3-3.2-0.8
			c-1.2-0.5-2.2-1.4-3.1-2.6c-0.9-1.3-1.3-2.7-1.3-4.2C49.3,51.9,49.6,50.8,50.1,49.6z"/>
		<path class="st0" d="M79.4,21.6c0.7-1.5,2.2-2.9,4.4-3.9c2.2-1.1,4.8-1.6,7.6-1.6c2.7,0,5.3,0.5,7.9,1.6c2.5,1.1,4.8,2.6,6.8,4.6
			c2,2,3.5,4.3,4.6,7.1c1.1,2.8,1.7,5.7,1.7,8.9c0,3.1-0.6,6.1-1.7,8.9c-1.1,2.8-2.7,5.1-4.6,7.1c-2,2-4.2,3.5-6.8,4.6
			c-2.5,1.1-5.2,1.6-7.9,1.6c-3.1,0-5.8-0.5-8-1.6c-2.2-1.1-3.7-2.4-4.5-3.9v4.3H67.6V1h11.8V21.6z M79.4,43.2
			c0.6,1.3,1.8,2.5,3.7,3.4c1.9,0.9,4,1.4,6.4,1.4c1.5,0,3.1-0.3,4.8-0.9c1.7-0.6,3.2-1.7,4.4-3.3s1.8-3.4,1.8-5.4s-0.6-3.8-1.8-5.4
			c-1.2-1.6-2.7-2.7-4.4-3.3s-3.3-0.9-4.8-0.9c-2.3,0-4.5,0.5-6.4,1.4c-1.9,0.9-3.1,2.1-3.7,3.4V43.2z"/>
		<path class="st0" d="M138.9,30.3c-0.6-0.5-1.5-0.9-2.4-1.2c-1-0.3-2-0.5-3-0.5c-1.5,0-2.9,0.3-4.2,0.9c-1.3,0.6-2.2,1.4-2.8,2.4
			c-0.6,1-1.1,2-1.4,3v24.4h-11.8V17.3h11.4v5.5c0.6-2,1.8-3.7,3.4-4.9c1.7-1.2,3.6-1.8,5.8-1.8c1.4,0,2.8,0.3,4.1,1
			c1.3,0.7,2.2,1.4,2.6,2.3L138.9,30.3z"/>
	</g>
	<g>
		<path class="st1" d="M33,0h11.8v58.2H33.4v-4.3c-0.7,1.5-2.2,2.9-4.5,3.9c-2.2,1.1-4.9,1.6-8,1.6c-2.7,0-5.3-0.5-7.9-1.6
			c-2.5-1.1-4.8-2.6-6.8-4.6c-2-2-3.5-4.3-4.6-7.1C0.6,43.4,0,40.4,0,37.3c0-3.1,0.6-6.1,1.7-8.9c1.1-2.8,2.7-5.1,4.6-7.1
			c2-2,4.2-3.5,6.8-4.6c2.5-1.1,5.2-1.6,7.9-1.6c2.9,0,5.4,0.5,7.6,1.6c2.2,1.1,3.7,2.4,4.4,3.9V0z M33,32.4
			c-0.6-1.3-1.8-2.5-3.7-3.4c-1.9-0.9-4-1.4-6.4-1.4c-1.5,0-3.1,0.3-4.8,0.9c-1.7,0.6-3.2,1.7-4.4,3.3c-1.2,1.6-1.8,3.4-1.8,5.4
			s0.6,3.8,1.8,5.4s2.7,2.7,4.4,3.3c1.7,0.6,3.3,0.9,4.8,0.9c2.3,0,4.5-0.5,6.4-1.4c1.9-0.9,3.1-2.1,3.7-3.4V32.4z"/>
		<path class="st1" d="M48.5,48.6c0.5-1.2,1.4-2.2,2.6-3.1s2.7-1.3,4.2-1.3c1,0,2,0.3,3.2,0.8c1.2,0.5,2.2,1.4,3.1,2.7
			c0.9,1.3,1.3,2.7,1.3,4.2c0,1-0.3,2-0.8,3.2c-0.5,1.2-1.4,2.2-2.7,3.1c-1.3,0.9-2.7,1.3-4.2,1.3c-1,0-2-0.3-3.2-0.8
			c-1.2-0.5-2.2-1.4-3.1-2.6c-0.9-1.3-1.3-2.7-1.3-4.2C47.8,50.9,48,49.8,48.5,48.6z"/>
		<path class="st1" d="M77.8,20.6c0.7-1.5,2.2-2.9,4.4-3.9c2.2-1.1,4.8-1.6,7.6-1.6c2.7,0,5.3,0.5,7.9,1.6c2.5,1.1,4.8,2.6,6.8,4.6
			c2,2,3.5,4.3,4.6,7.1c1.1,2.8,1.7,5.7,1.7,8.9c0,3.1-0.6,6.1-1.7,8.9c-1.1,2.8-2.7,5.1-4.6,7.1c-2,2-4.2,3.5-6.8,4.6
			c-2.5,1.1-5.2,1.6-7.9,1.6c-3.1,0-5.8-0.5-8-1.6c-2.2-1.1-3.7-2.4-4.5-3.9v4.3H66.1V0h11.8V20.6z M77.8,42.2
			c0.6,1.3,1.8,2.5,3.7,3.4c1.9,0.9,4,1.4,6.4,1.4c1.5,0,3.1-0.3,4.8-0.9c1.7-0.6,3.2-1.7,4.4-3.3s1.8-3.4,1.8-5.4s-0.6-3.8-1.8-5.4
			c-1.2-1.6-2.7-2.7-4.4-3.3s-3.3-0.9-4.8-0.9c-2.3,0-4.5,0.5-6.4,1.4c-1.9,0.9-3.1,2.1-3.7,3.4V42.2z"/>
		<path class="st1" d="M137.4,29.3c-0.6-0.5-1.5-0.9-2.4-1.2c-1-0.3-2-0.5-3-0.5c-1.5,0-2.9,0.3-4.2,0.9c-1.3,0.6-2.2,1.4-2.8,2.4
			c-0.6,1-1.1,2-1.4,3v24.4h-11.8V16.3h11.4v5.5c0.6-2,1.8-3.7,3.4-4.9c1.7-1.2,3.6-1.8,5.8-1.8c1.4,0,2.8,0.3,4.1,1
			c1.3,0.7,2.2,1.4,2.6,2.3L137.4,29.3z"/>
	</g>
</g>
</svg>
